# xmcd
#
# Track frame offsets: 
#        150
#        14675
#        27830
#        40612
#        54122
#        65520
#        77460
#        89972
#        100252
#        113525
#        123965
#        133840
#        146827
#        161397
#        171342
#        185427
#        198942
#        212357
#        226035
#        240905
#
# Disc length: 3389 seconds
#
# Revision: 0
# Processed by: cddbd v1.5.2PL0 Copyright (c) Steve Scherf et al.
# Submitted via: ExactAudioCopy v1.3
#
DISCID=000d3b14
DTITLE=Various Artist - Modern-Kent - The Best Of R&B Vocals
DYEAR=1965
DGENRE=Blues
TTITLE0=The Cadets - Stranded In The Jungle
TTITLE1=The Cadets - I Got Loaded
TTITLE2=The Jacks - Why Don't You Write Me?
TTITLE3=The Jacks - My Darling
TTITLE4=The Flairs - Let's Make With Some Love
TTITLE5=The Flairs - My Darling, My Sweet
TTITLE6=Marvin and Johnny - Cherry Pie
TTITLE7=Marvin and Johnny - Honey Girl
TTITLE8=Richard Berry and The Dreamers - Next Time
TTITLE9=Richard Berry and The Dreamers - Bye Bye
TTITLE10=Shirley Gunter and The Queens - Oop Shoop
TTITLE11=Shirley Gunter and The Queens - Send Him Back
TTITLE12=The Teen Queens - Eddie My Love
TTITLE13=The Rams - Rock Bottom
TTITLE14=The Drifters - The World Is Changing
TTITLE15=Oscar McLollie and The Honey Jumpers - Convicted
TTITLE16=Oscar McLollie and The Honey Jumpers - Roll, Hot Rod, Roll
TTITLE17=Young Jessie - Mary Lou
TTITLE18=Young Jessie - Nothing Seems Right
TTITLE19=The Cliques - Girl Of My Dreams
EXTD=
EXTT0=
EXTT1=
EXTT2=
EXTT3=
EXTT4=
EXTT5=
EXTT6=
EXTT7=
EXTT8=
EXTT9=
EXTT10=
EXTT11=
EXTT12=
EXTT13=
EXTT14=
EXTT15=
EXTT16=
EXTT17=
EXTT18=
EXTT19=
PLAYORDER=
